<?xml version="1.0" encoding="UTF-8" standalone="no"?>
<!-- Generator: Adobe Illustrator 16.0.0, SVG Export Plug-In . SVG Version: 6.00 Build 0)  -->

<svg
   xmlns:dc="http://purl.org/dc/elements/1.1/"
   xmlns:cc="http://creativecommons.org/ns#"
   xmlns:rdf="http://www.w3.org/1999/02/22-rdf-syntax-ns#"
   xmlns:svg="http://www.w3.org/2000/svg"
   xmlns="http://www.w3.org/2000/svg"
   xmlns:sodipodi="http://sodipodi.sourceforge.net/DTD/sodipodi-0.dtd"
   xmlns:inkscape="http://www.inkscape.org/namespaces/inkscape"
   version="1.1"
   id="图层_1"
   x="0px"
   y="0px"
   width="800px"
   height="250px"
   viewBox="0 0 800 250"
   style="enable-background:new 0 0 800 250;"
   xml:space="preserve"
   inkscape:version="0.48.2 r9819"
   sodipodi:docname="logo.svg"><metadata
   id="metadata3135"><rdf:RDF><cc:Work
       rdf:about=""><dc:format>image/svg+xml</dc:format><dc:type
         rdf:resource="http://purl.org/dc/dcmitype/StillImage" /></cc:Work></rdf:RDF></metadata><defs
   id="defs3133"><linearGradient
     id="linearGradient2307"><stop
       style="stop-color:#b2ff00;stop-opacity:0.0000000;"
       offset="0.0000000"
       id="stop2308" /><stop
       style="stop-color:#abef0f;stop-opacity:0.0000000;"
       offset="0.37878788"
       id="stop2315" /><stop
       style="stop-color:#abef0f;stop-opacity:0.45882353;"
       offset="0.82681358"
       id="stop2314" /><stop
       style="stop-color:#abef0f;stop-opacity:1.0000000;"
       offset="1.0000000"
       id="stop2309" /></linearGradient></defs><sodipodi:namedview
   pagecolor="#ffffff"
   bordercolor="#666666"
   borderopacity="1"
   objecttolerance="10"
   gridtolerance="10"
   guidetolerance="10"
   inkscape:pageopacity="0"
   inkscape:pageshadow="2"
   inkscape:window-width="1060"
   inkscape:window-height="822"
   id="namedview3131"
   showgrid="false"
   inkscape:zoom="1.3409298"
   inkscape:cx="286.94199"
   inkscape:cy="94.027243"
   inkscape:window-x="293"
   inkscape:window-y="21"
   inkscape:window-maximized="0"
   inkscape:current-layer="layer1"
   inkscape:snap-global="true"
   inkscape:snap-center="false" />





<g
   id="g3091">
	<rect
   x="225.527"
   y="29.574"
   style="fill:none;"
   width="548.236"
   height="163.529"
   id="rect3093" />
	
	
	
	
	
	
	
	
	
	
	
	
</g>
<g
   id="g3119">
</g>
<g
   id="g3121">
</g>
<g
   id="g3123">
</g>
<g
   id="g3125">
</g>
<g
   id="g3127">
</g>
<g
   id="g3129">
</g>
<text
   xml:space="preserve"
   style="font-size:84.80554198999999471px;font-style:normal;font-variant:normal;font-weight:bold;font-stretch:normal;line-height:125%;letter-spacing:0px;word-spacing:0px;fill:#dbe3e2;fill-opacity:1;stroke:none;font-family:Abadi MT Condensed Light;-inkscape-font-specification:Abadi MT Condensed Light"
   x="243.92879"
   y="115.24455"
   id="text3137"
   sodipodi:linespacing="125%"
   transform="scale(0.96039426,1.041239)"><tspan
     sodipodi:role="line"
     id="tspan3139"
     x="243.92879"
     y="115.24455">The Same Summer.</tspan></text>

<flowRoot
   xml:space="preserve"
   id="flowRoot3141"
   style="fill:black;stroke:none;stroke-opacity:1;stroke-width:1px;stroke-linejoin:miter;stroke-linecap:butt;fill-opacity:1;font-family:Sans;font-style:normal;font-weight:normal;font-size:40px;line-height:125%;letter-spacing:0px;word-spacing:0px"><flowRegion
     id="flowRegion3143"><rect
       id="rect3145"
       width="6.818182"
       height="56.81818"
       x="225"
       y="77.272728" /></flowRegion><flowPara
     id="flowPara3147" /></flowRoot><text
   xml:space="preserve"
   style="font-size:50.79716872999999566px;font-style:italic;font-variant:normal;font-weight:bold;font-stretch:normal;line-height:125%;letter-spacing:0px;word-spacing:0px;fill:#dbe3e2;fill-opacity:1;stroke:none;font-family:Abadi MT Condensed Light;-inkscape-font-specification:Abadi MT Condensed Light"
   x="268.69986"
   y="182.17851"
   id="text3149"
   sodipodi:linespacing="125%"
   transform="scale(0.90502911,1.1049368)"><tspan
     sodipodi:role="line"
     id="tspan3151"
     x="268.69986"
     y="182.17851">Clarity is better than cleverness.</tspan></text>

<g
   inkscape:groupmode="layer"
   id="layer1"
   inkscape:label="color"><g
     id="g3072"
     transform="matrix(0.13680252,0,0,0.14092907,22.430129,45.427987)"><title
       id="title3074">Layer 1</title><ellipse
       stroke-linejoin="null"
       stroke-linecap="null"
       cx="790"
       cy="610"
       id="svg_6"
       rx="570"
       ry="570"
       sodipodi:cx="790"
       sodipodi:cy="610"
       sodipodi:rx="570"
       sodipodi:ry="570"
       style="fill:#ffffff;stroke:#000000;stroke-width:10;stroke-dasharray:none"
       d="m 1360,610 c 0,314.80231 -255.1977,570 -570,570 C 475.19769,1180 220,924.80231 220,610 220,295.19769 475.19769,40 790,40 c 314.8023,0 570,255.19769 570,570 z" /><g
       id="svg_13"><path
         id="svg_14"
         d="m 768.70361,79.071411 -0.38586,6.300705 c -0.16797,3.467072 -0.51526,13.921844 -0.771,23.264344 l -0.38586,16.9635 -11.37854,-9.85495 c -13.15546,-11.47037 -14.90845,-11.92831 -14.84949,-4.03903 0.0239,3.19891 5.38782,10.71057 11.86017,16.72119 10.36621,9.62625 11.8219,12.65967 12.43927,25.44522 0.46643,9.65311 -0.43842,13.96497 -2.60345,12.84396 -1.7909,-0.92721 -3.18189,-3.36355 -3.18189,-5.41217 0,-2.04867 -1.38873,-3.71585 -3.08581,-3.71585 -1.69745,0 -3.08545,-4.50366 -3.08545,-10.01657 0,-11.47293 -7.76917,-19.49054 -12.63221,-13.08618 -1.54992,2.04123 -2.19073,5.08078 -1.44622,6.7854 1.6441,3.76559 -7.23658,1.3111 -13.21033,-3.63501 -2.24256,-1.85669 -5.85718,-3.31183 -8.10016,-3.31183 -8.34534,0 -6.97852,7.29184 3.18225,17.04425 12.08521,11.59976 12.73932,13.91534 4.72498,15.67105 -3.93769,0.86261 -5.289,2.86902 -4.24298,6.22 1.73638,5.5618 10.01623,6.55362 15.62115,1.85804 4.20069,-3.51932 4.30774,-3.33436 5.01441,6.38137 0.58941,8.10871 0.0537,8.29038 -10.51075,3.23108 -10.34314,-4.95331 -12.3424,-4.82922 -12.3424,1.05026 0,2.74039 4.51275,7.93448 10.02838,11.55112 7.52441,4.93421 8.3612,6.24066 3.47125,5.17008 -4.25739,-0.93235 -7.16651,-0.003 -8.38922,2.66549 -2.65637,5.79956 -4.80554,5.31976 -25.36017,-5.89685 -10.08777,-5.50476 -19.86304,-9.55447 -21.69592,-8.96631 -6.42359,2.06174 -2.3451,11.92661 6.65356,16.07505 l 9.06409,4.11959 -8.29273,0.80777 c -4.52337,0.45246 -8.95025,2.42994 -9.83545,4.36213 -1.73114,3.77893 5.98359,7.48251 10.60682,5.08898 1.54418,-0.79925 2.89282,-0.21307 2.89282,1.29245 0,1.50547 2.42987,2.79584 5.3999,2.90802 3.92145,0.14829 4.19611,0.57538 1.06073,1.61564 -3.27112,1.08523 -2.62769,2.5502 2.79645,5.97763 l 7.23193,4.52362 -12.9212,1.85803 c -13.29352,1.88129 -16.32184,6.0358 -8.38886,11.55113 2.98932,2.07846 6.14325,2.28656 9.64252,0.64655 5.8194,-2.72855 16.77801,-1.20319 16.77801,2.34234 0,1.25592 2.77717,2.3425 6.17127,2.3425 3.3941,0 6.17157,-1.16299 6.17157,-2.58475 0,-1.42181 3.12402,-2.55145 6.94263,-2.50421 l 6.94256,0.0809 -7.61749,5.25042 c -5.91815,4.12625 -6.65466,5.73352 -3.37518,7.43195 4.63189,2.39783 12.62921,0.64435 16.58545,-3.63532 1.43151,-1.54837 1.80487,0.39344 0.77136,4.36213 -1.54157,5.91943 -0.84888,7.10836 4.33911,7.10836 3.4267,0 6.32672,-1.4541 6.46063,-3.23111 0.16608,-2.20483 0.76001,-2.06805 1.92859,0.40393 1.24951,2.64417 2.80853,1.92457 5.68927,-2.5849 l 3.95325,-6.22 3.85717,7.10862 c 2.12073,3.89923 2.87732,7.92892 1.63916,8.96652 -1.23852,1.03738 -12.30011,2.30725 -24.58844,2.82724 -20.56176,0.86963 -23.54241,0.34945 -37.1242,-6.8663 -13.52387,-7.18485 -23.43158,-8.38605 -23.43158,-2.82724 0,1.22399 3.81817,4.07641 8.48529,6.30072 l 8.48566,4.03894 -10.79975,-1.69629 c -10.6828,-1.63788 -28.65478,-9.39228 -36.54577,-15.83271 -2.24256,-1.83026 -6.75531,-3.31189 -10.02802,-3.31189 -6.28809,0 -7.91858,4.99866 -2.98932,9.12812 1.85101,1.55096 -2.89172,2.80169 -12.92126,3.31164 -8.7342,0.44422 -17.05378,1.39435 -18.41718,2.10034 -10.14606,5.253 14.8551,14.79279 32.9776,12.60148 l 12.43897,-1.45408 -8.67823,4.11976 c -5.25464,2.49823 -8.34192,5.8413 -7.71435,8.48181 1.50226,6.3197 14.83435,4.20196 23.33551,-3.71585 3.95587,-3.68448 9.30548,-6.09858 12.34247,-5.49283 4.25811,0.84891 3.70697,1.70776 -2.79639,3.95804 -10.50769,3.63571 -13.69605,7.88894 -7.32849,9.9357 2.75067,0.88427 4.31036,3.09604 3.47131,4.92761 -0.83905,1.83145 0.55078,3.98199 2.98932,4.76593 2.43854,0.78393 4.43561,0.4035 4.43561,-0.8078 0,-2.11328 9.97046,-5.7345 17.45288,-6.38153 1.96869,-0.17029 6.48145,-2.5615 10.02838,-5.25055 3.54736,-2.68924 6.46063,-4.02161 6.46063,-2.98886 0,2.68319 -6.74316,7.96011 -14.75299,11.55142 -3.78375,1.6962 -6.84649,4.23819 -6.84649,5.65436 0,4.87582 9.50067,5.63263 15.33178,1.21182 5.56714,-4.2207 5.75513,-4.1843 4.14661,0.96939 -2.35455,7.54215 3.96118,6.79193 10.22095,-1.21173 3.91577,-5.00632 5.83563,-5.79291 7.81073,-3.23144 2.14422,2.78137 3.02075,2.75708 5.20697,-0.0806 1.46325,-1.89966 5.28143,-3.16827 8.48565,-2.82721 12.45026,1.32526 28.81787,-7.99719 29.31305,-16.72128 0.26746,-4.70581 0.57428,-4.56534 2.50739,1.05035 1.83667,5.33505 0.32153,7.92389 -8.77509,14.78235 -6.05963,4.56906 -19.58197,12.07858 -30.08478,16.72122 l -19.09247,8.40082 -14.84942,-6.21973 c -8.16565,-3.41644 -16.58551,-6.44775 -18.70667,-6.7854 -5.50653,-0.8768 -4.76355,4.11649 1.54273,10.33945 4.85889,4.79489 4.83356,4.92539 0.0965,1.85794 -2.89594,-1.87488 -6.43836,-2.77997 -7.90686,-2.01938 -1.469,0.76038 -6.54273,-0.28277 -11.28211,-2.34262 -11.36529,-4.93957 -14.91077,-4.69653 -12.82477,0.80774 1.38269,3.64941 -0.0685,4.46692 -7.52099,4.28143 -5.081,-0.12652 -9.95917,-0.91143 -10.89624,-1.69647 -3.75653,-3.14691 -13.69263,1.48718 -13.69263,6.38165 0,3.97303 1.49963,4.88312 6.46063,3.79645 6.19434,-1.35687 6.23328,-1.23391 1.06043,3.55438 -5.58563,5.17057 -4.66938,5.88251 7.03943,5.08896 5.38208,-0.36502 6.49841,0.50736 4.91748,3.95822 -1.66755,3.64057 -0.6034,4.25419 5.78576,3.23118 6.38575,-1.02274 7.48053,-0.41169 6.2677,3.47335 -1.64862,5.28147 0.30603,5.85086 8.00336,2.42347 7.56488,-3.36835 17.11585,7.33023 10.89618,12.19751 -3.48035,2.72348 -4.53583,2.61584 -5.8822,-0.32322 -0.92304,-2.01507 -6.39026,-3.68667 -12.43891,-3.87732 -5.93255,-0.1867 -10.08136,0.69095 -9.16058,1.93891 0.92078,1.24783 -1.03918,1.63251 -4.43555,0.88846 -7.79266,-1.70716 -8.03399,2.21856 -0.38549,6.22006 4.04815,2.11804 5.3034,4.9635 4.24261,9.61255 -1.86615,8.17892 -2.33636,8.24713 -13.69263,0.24231 -5.04199,-3.55426 -11.18066,-6.46237 -13.59613,-6.46237 -5.17175,0 -5.43506,1.26873 -1.44622,7.5126 3.23828,5.06848 1.20642,5.1904 -22.17792,1.45389 -7.62085,-1.21771 -11.57147,-0.87866 -11.57147,0.9693 0,3.34658 16.02258,10.74359 23.33551,10.74359 4.21808,0 4.46508,0.65167 1.34979,3.79666 -3.06574,3.09457 -2.95722,4.16357 0.67486,5.33127 2.48359,0.79858 5.80237,1.20858 7.3285,0.96948 6.44549,-1.00971 10.45959,0.4556 9.73895,3.47357 -0.47363,1.98358 2.50476,3.15784 7.71393,3.0694 6.52948,-0.1106 8.50348,1.0813 8.58215,5.16992 0.0987,5.10373 0.34235,5.05334 6.1712,-0.80777 4.81769,-4.84427 6.07514,-5.20355 6.07514,-1.77716 0,2.37399 1.38501,3.62686 3.08545,2.7464 1.70044,-0.88028 4.40643,1.4129 6.07513,5.08914 1.66834,3.67621 5.14301,7.33221 7.71393,8.15869 2.57092,0.82642 4.72497,3.10864 4.72497,5.08905 0,1.98041 2.23127,3.63498 5.01404,3.63498 2.78278,0 6.81244,1.974 8.96759,4.44278 3.69379,4.23206 4.37848,4.1951 11.18561,-0.64621 l 7.232,-5.08896 -5.49634,5.41214 c -3.32147,3.30405 -13.612,7.06473 -26.61383,9.69345 -27.17377,5.49454 -33.73804,5.32202 -44.83814,-0.80798 -10.28149,-5.67752 -15.29779,-4.62531 -12.5354,2.66583 1.55103,4.09387 0.37146,5.00824 -6.94256,5.00824 -4.86652,0 -10.25348,-1.15784 -11.95697,-2.58481 -2.07276,-1.73614 -5.07154,-1.39575 -9.06409,1.05005 -5.72864,3.50925 -5.58978,3.83502 3.95361,8.40091 7.19452,3.44232 9.47229,6.05737 8.19623,9.45099 -1.13751,3.02472 -0.25153,4.50485 2.41058,4.20075 8.93396,-1.02082 12.39881,0.25659 10.70325,3.958 -2.96057,6.46271 8.30444,9.54499 16.87451,4.60453 5.62195,-3.24103 6.45343,-3.39463 3.66425,-0.48462 -5.21112,5.43777 -0.2005,11.12204 7.90723,8.96634 11.68493,-3.107 14.83392,1.86303 3.37481,5.33142 -14.72009,4.45507 -29.40344,4.36755 -34.90625,-0.24237 -6.08685,-5.09912 -15.53833,-5.16156 -13.21063,-0.0806 1.44019,3.1441 -0.70892,3.56421 -12.05341,2.26172 -16.60101,-1.90619 -18.68017,2.39129 -3.37481,7.02765 7.4234,2.24884 10.04992,4.43475 9.06408,7.5932 -1.64788,5.27826 8.0979,8.21222 15.62116,4.68494 4.09283,-1.91852 5.11047,-1.16999 5.11047,3.95837 0,5.24072 1.12964,6.13757 6.65357,4.92773 5.45739,-1.1958 6.25219,-0.68567 4.53204,3.0694 -1.6861,3.68097 -0.82391,4.40076 4.14618,3.31201 3.41949,-0.74933 6.2677,-0.31946 6.2677,0.96918 0,4.52972 6.52685,2.25915 14.75336,-5.08905 9.9085,-8.85095 15.77441,-10.80689 23.04571,-7.67389 8.45203,3.64154 6.33923,6.5849 -3.85712,5.33154 -10.62646,-1.30676 -12.19305,2.63068 -4.53167,11.79352 4.48022,5.35883 4.46057,5.73523 -1.25373,5.73523 -3.3695,0 -8.25415,1.74481 -10.79968,3.8775 -2.54559,2.13245 -6.69031,3.87732 -9.25708,3.87732 -2.56677,0 -5.47778,1.09106 -6.46063,2.42334 -0.98279,1.33234 -7.19263,2.33801 -13.7887,2.26178 -6.596,-0.0762 -13.79205,0.79187 -16.00702,1.9386 -2.21496,1.14703 -8.52539,1.84265 -13.98162,1.53479 -8.21595,-0.46344 -10.07074,0.45795 -10.89624,5.3316 -0.71723,4.23377 -3.12818,5.93726 -8.67823,6.13904 -4.24304,0.15406 -9.10302,0.60437 -10.79974,0.96924 -1.69702,0.36523 -5.51563,0.41467 -8.48566,0.1615 -2.97003,-0.25269 -5.39984,0.57275 -5.39984,1.77728 0,3.42694 17.07648,11.06665 24.78137,11.06665 6.74964,0 6.87445,0.14551 1.4466,5.16986 -5.4502,5.04499 -5.39307,5.17005 2.50702,5.17005 6.04602,0 7.63903,0.96393 6.2677,3.95794 -1.49659,3.26776 -0.19599,3.69263 7.039,2.26178 4.88159,-0.96514 9.56537,-1.7102 10.41424,-1.69647 9.62323,0.15802 11.86017,1.04389 10.41388,4.20063 -3.22235,7.03521 4.77002,6.83789 9.35352,-0.24256 4.36297,-6.73962 4.60882,-6.82855 4.72497,-1.37305 0.0678,3.1991 1.23401,5.90265 2.50702,6.0586 18.85413,2.30865 21.94751,1.54297 25.74567,-6.13916 l 3.85712,-7.75501 2.69995,6.13935 2.69995,6.21972 5.97864,-6.46209 c 5.91815,-6.45307 5.90948,-6.46076 5.97833,-0.64643 0.0923,7.84375 5.5932,7.39807 8.00336,-0.64618 1.06488,-3.55419 3.30444,-6.46203 4.91791,-6.46203 1.61303,0 1.93194,1.25354 0.77136,2.82709 -1.47504,1.99932 0.91394,2.33673 7.90686,1.05035 7.42492,-1.36627 9.74048,-1.05359 8.77466,1.37323 -1.896,4.76446 -21.22156,12.84399 -30.76001,12.84399 -4.51203,0 -8.82917,1.45368 -9.64252,3.23084 -0.90906,1.98608 -6.94031,3.11597 -15.71765,2.98889 -7.85358,-0.11389 -14.27106,0.69855 -14.27106,1.77704 0,4.97485 10.70972,10.35779 19.18897,9.61255 5.03857,-0.44269 9.39129,0.21551 9.64251,1.53485 0.8205,4.30548 -17.2702,6.72681 -61.23071,8.15875 -49.54041,1.61365 -69.42694,3.43127 -69.42694,6.21973 0,1.07568 -3.47131,1.40655 -7.7143,0.72717 -4.38153,-0.70184 -7.71398,-0.0529 -7.71398,1.53491 0,3.62305 10.08099,8.15845 18.22467,8.15845 3.50573,0 6.46063,1.16327 6.46063,2.5852 0,1.42157 -1.51056,2.5849 -3.27832,2.5849 -1.76819,0 -6.28095,2.40174 -10.02844,5.41169 l -6.75,5.49322 10.02838,-1.13092 c 6.63354,-0.75934 10.02838,-0.089 10.02838,2.01959 0,1.91504 2.46386,2.66993 6.17126,1.85798 3.45008,-0.75599 6.17157,-0.0792 6.17157,1.53479 0,4.17443 7.849,3.56616 12.34247,-0.96967 2.11243,-2.13251 5.18988,-3.87701 6.94257,-3.87701 1.75232,0 0.9768,2.0852 -1.8321,4.68487 -2.80889,2.60022 -5.11047,5.50806 -5.11047,6.46252 0,2.73975 11.76819,2.06134 13.88513,-0.80767 3.05481,-4.14087 7.14124,-2.99976 9.25708,2.58471 2.47748,6.5401 5.99909,6.49848 17.16388,-0.1615 l 8.96765,-5.33142 -1.92859,7.91626 c -2.32354,9.73279 3.28363,10.51874 15.81372,2.26203 8.23182,-5.42456 8.46259,-5.41944 5.20734,-0.32325 -3.83374,5.99994 -1.98914,8.85065 4.43555,6.78547 2.40106,-0.7721 6.44323,0.0223 8.96765,1.77691 3.18793,2.21662 4.62848,2.33893 4.62848,0.32306 0,-1.5957 2.08294,-2.90783 4.62854,-2.90783 2.54559,0 4.62854,1.5993 4.62854,3.63501 0,2.50921 2.73205,3.45397 8.48529,2.90808 32.12042,-3.047 -9.4231,12.60022 -46.76673,17.60974 -24.41406,3.27478 -26.86358,3.15014 -34.90625,-1.29267 -4.75335,-2.62536 -10.31774,-4.75634 -12.4389,-4.76593 -6.38269,-0.0281 -4.34515,5.1471 3.08539,7.83557 5.09765,1.84443 3.25268,2.04187 -6.94257,0.72699 -7.63714,-0.98468 -17.35681,-1.63128 -21.59948,-1.45379 -4.24299,0.17724 -14.59974,-1.3562 -22.94965,-3.39301 -8.34985,-2.03656 -15.64645,-3.3714 -16.19959,-2.90777 -3.21933,2.6969 16.53516,13.35608 27.57813,14.86303 l 13.11383,1.77723 -11.57111,0.3233 c -8.05706,0.22528 -11.5711,1.50085 -11.5711,4.20019 0,2.13275 2.42987,4.06507 5.3999,4.28131 2.96967,0.2168 6.78821,0.63916 8.48529,0.96961 1.69708,0.33008 5.07569,0.72442 7.52136,0.88873 3.27234,0.21912 2.86151,1.25983 -1.54272,3.95795 -7.62537,4.67053 -4.00391,8.02746 4.53168,4.20056 5.31134,-2.38141 6.46063,-2.13513 6.46063,1.37305 0,3.31525 2.20813,3.99072 10.02838,3.06976 5.51562,-0.64996 12.80554,-2.02618 16.19964,-3.06976 6.08307,-1.87012 6.00025,-1.84894 0.0964,2.18121 -6.01306,4.10388 -4.72418,5.05475 5.30341,4.20038 3.07373,-0.26196 5.3999,1.33551 5.3999,3.63525 0,5.52881 2.49866,5.07221 9.83545,-1.77722 l 6.2677,-5.8161 -5.01404,7.02753 c -2.73016,3.8598 -4.91754,8.19397 -4.91754,9.69366 0,3.99579 15.13696,1.04541 22.37085,-4.36218 6.06189,-4.53204 6.10766,-4.44806 3.76031,1.85809 -3.26172,8.76233 -7.04962,10.61371 -35.48462,17.771 -23.61926,5.94537 -25.04467,6.01935 -37.79913,1.93878 -13.90332,-4.44788 -33.07446,-5.71576 -33.07446,-2.18109 0,1.13739 1.61456,3.53351 3.66461,5.25061 2.50549,2.09942 -1.61993,1.77045 -12.63226,-0.96936 -9.00809,-2.24091 -18.48755,-3.43006 -21.11713,-2.58466 -4.03268,1.29615 -3.66803,2.58161 2.31412,7.91614 l 7.03897,6.3009 -10.41388,-2.50427 c -13.42401,-3.22528 -29.73334,-3.22113 -32.1098,0 -2.45285,3.32477 18.18271,10.4043 30.3742,10.42041 l 9.73896,0 -9.06409,6.05847 c -8.94684,5.9972 -8.8613,13.8656 0.0964,10.98597 2.97958,-0.95795 4.3392,0.60308 4.3392,5.00824 0,4.57934 1.61151,6.38159 5.88217,6.38159 3.27301,0 8.10208,1.77893 10.70325,3.95831 3.92639,3.28882 5.76983,3.3783 10.99231,0.64606 3.46033,-1.81018 6.3645,-4.17084 6.3645,-5.25092 0,-1.07947 2.43213,0.0972 5.49597,2.58515 5.90869,4.79724 7.59217,10.9859 2.98932,10.9859 -1.51428,0 -1.73938,1.25366 -0.57837,2.82739 1.46741,1.98926 -0.81714,2.36401 -7.52142,1.13074 -6.15265,-1.13208 -9.64252,-0.81092 -9.64252,0.96923 0,1.58387 -6.00403,2.8274 -13.88553,2.8274 -14.46017,0 -17.18924,2.23974 -9.25702,7.75464 3.09034,2.14856 9.61869,2.71875 19.28544,1.69641 l 14.65686,-1.53467 -11.47461,5.08899 c -7.96857,3.53918 -10.91892,6.34192 -9.64289,9.12805 1.14777,2.50501 3.72135,3.34522 6.8465,2.26172 2.75061,-0.95386 7.09692,-1.99719 9.64252,-2.34253 2.54559,-0.34558 2.89282,-0.12634 0.7713,0.4845 -7.81568,2.25134 -3.77918,6.4021 4.62854,4.76611 6.07251,-1.18188 7.20172,-0.91699 3.95361,0.88855 -8.16333,4.53711 -0.91357,5.854 8.87116,1.61548 5.24896,-2.27393 9.54644,-3.03601 9.54644,-1.69641 0,1.33972 -1.73602,3.00049 -3.85717,3.63513 -2.12146,0.63477 -2.78431,2.11511 -1.4466,3.31189 1.33728,1.19678 6.38343,0.90271 11.28205,-0.64624 7.29516,-2.30688 8.682,-2.14807 7.32812,0.80786 -1.19128,2.6012 -0.0901,3.08496 4.05005,1.85779 4.815,-1.427 5.12219,-1.08899 1.73566,1.93884 -3.15656,2.82202 -13.78113,3.49854 -48.59882,3.0697 -26.94147,-0.33215 -44.5491,0.43445 -44.5491,1.9386 0,1.36805 2.15475,2.50415 4.82144,2.50415 2.66702,0 6.77994,1.64051 9.16055,3.63514 3.71454,3.11169 3.63776,3.84521 -0.4823,5.16967 -2.64056,0.84888 -9.18365,1.51294 -14.56045,1.53467 -11.33655,0.0458 -19.11783,3.41455 -16.39221,7.10877 3.36651,4.56335 18.67977,5.39294 31.33853,1.69629 16.87677,-4.92859 17.79071,-4.64478 9.06408,2.66564 -10.88147,9.11573 -10.08896,14.61145 1.63913,11.79371 5.03598,-1.20997 10.59015,-2.97022 12.34247,-3.87732 1.75226,-0.90723 3.30939,0.49756 3.56775,3.06945 0.25879,2.5719 0.68054,5.99707 0.86823,7.67408 0.18725,1.67675 1.27673,3.89685 2.41052,4.84655 2.43207,2.03772 21.02069,-6.67944 21.02069,-9.85473 0,-1.19934 1.2605,-1.49121 2.89282,-0.64636 1.89984,0.98339 1.89984,3.8916 0,8.07788 -1.63232,3.59631 -2.89282,7.7019 -2.89282,9.12793 0,3.41675 14.5816,-5.42774 29.21728,-17.69055 10.91742,-9.14734 12.47827,-7.58374 2.31446,2.34265 -2.49335,2.43493 -3.60596,6.40649 -2.50696,8.80493 1.77423,3.87414 2.79187,3.65308 9.83502,-1.85803 l 8.00336,-6.13904 -1.06037,6.46216 c -0.97827,5.93384 -3.07977,6.71313 -25.74603,9.8551 -15.92841,2.20789 -26.35815,2.5481 -29.40991,0.96924 -7.73474,-4.00135 -24.58881,-6.37708 -24.58881,-3.47339 0,1.43579 2.42984,3.16052 5.3999,3.79639 2.97004,0.63574 -1.54272,0.62475 -10.02841,0 -12.40484,-0.91297 -14.67239,-0.52185 -11.57107,2.10034 5.89999,4.98864 4.57739,6.84387 -3.85678,5.49292 -9.97351,-1.59693 -23.973,1.38745 -21.59949,4.60437 1.01797,1.38025 5.01132,2.50415 8.87076,2.50415 13.18991,0 11.33694,3.55774 -4.72458,8.96643 -27.37726,9.21954 -21.40354,16.07624 6.74969,7.75494 14.24979,-4.21173 19.82221,-3.482 9.35343,1.2117 -3.53937,1.5869 -6.36414,4.7102 -6.36414,6.9469 0,3.1179 1.86878,3.673 8.19632,2.3427 7.28183,-1.5312 7.82852,-1.2774 4.24259,2.3424 -8.31467,8.3928 0.50274,8.4121 14.27105,0 6.42694,-3.9268 6.68646,-3.8904 4.91791,1.858 -1.65887,5.3909 -1.32553,5.6532 3.37482,2.4235 4.64026,-3.1888 4.95385,-3.0424 3.08581,1.2923 -1.8446,4.2788 -1.11603,4.1411 5.59278,-0.9693 7.86035,-5.988 12.69427,-5.4829 9.73901,0.9693 -2.35761,5.1461 5.03894,4.4614 16.77801,-1.5346 5.58826,-2.8545 10.02839,-3.8373 10.02839,-2.2619 0,1.7505 3.23071,2.2078 8.48565,1.2118 5.74152,-1.0885 6.98877,-0.8566 3.85681,0.7272 -2.54559,1.287 -12.26532,3.6367 -21.59912,5.2502 -20.0957,3.4738 -26.33654,6.303 -23.23901,10.5012 2.1272,2.8837 6.276,2.5702 24.78174,-1.6154 4.72613,-1.0694 3.82348,0.5721 -3.85718,6.7854 -5.51563,4.4614 -10.02838,8.6524 -10.02838,9.3702 0,2.5685 17.15637,-0.6221 26.99939,-5.0081 10.81598,-4.8198 12.48053,-3.3448 5.30334,4.6042 -6.2669,6.9411 -5.66467,10.0011 1.63922,8.4011 4.01075,-0.8787 6.17121,-0.02 6.17121,2.3425 0,4.835 2.82513,4.5725 10.02838,-0.8885 5.69531,-4.318 5.95221,-4.2902 4.91791,0.6461 -1.65241,7.8872 15.46722,5.5091 24.58886,-3.3926 l 7.1355,-6.9471 -2.02508,8.4011 c -2.67987,11.1177 5.06585,11.4089 17.06744,0.6461 4.75604,-4.265 9.05048,-7.7557 9.64252,-7.7547 0.59204,8e-4 1.28735,3.0085 1.54272,6.7048 0.70252,10.1642 5.72937,12.9056 12.14991,6.6236 5.06921,-4.9593 5.79559,-5.055 9.54608,-0.969 3.71338,4.0452 4.1333,3.9833 5.8822,-1.2119 1.1311,-3.3602 3.57416,-5.0852 6.07471,-4.2815 2.66101,0.8558 4.9486,-1.1698 6.2677,-5.5736 1.42962,-4.7719 2.86602,-5.9737 4.53247,-3.7157 1.3327,1.8069 5.3117,3.6646 8.87073,4.1197 5.02575,0.6428 7.97576,-1.7178 13.21069,-10.7433 6.75983,-11.6569 13.8927,-16.1537 10.22095,-6.4624 -2.37195,6.2605 -0.58753,6.4259 9.35345,0.9692 4.18292,-2.2963 7.71021,-6.6581 7.90692,-9.6933 0.28638,-4.4158 0.69721,-4.6144 1.83209,-0.9695 2.3443,7.529 7.13172,2.3023 7.232,-7.9163 0.0761,-7.7354 0.63214,-8.6758 3.18225,-5.0082 1.72919,2.4879 6.03656,4.5236 9.54608,4.5236 6.07965,0 6.31683,0.9436 4.33911,20.033 -1.38196,13.3388 -4.61944,24.2196 -9.64251,32.5539 -2.94135,4.8796 -5.41089,9.2253 -6.6532,11.6322 l 76.75506,0 c 3.4032,-2.2823 1.87146,-6.2893 -1.63928,-13.3287 -5.47168,-10.9707 -7.58227,-33.3715 -3.27832,-34.5731 1.68152,-0.4698 5.46839,2.5871 8.48535,6.8662 5.62488,7.9765 12.54065,10.9162 9.35352,3.9581 -3.64465,-7.9563 2.09497,-3.5997 6.26758,4.766 3.32983,6.6766 5.99682,8.6702 11.57116,8.3199 3.9983,-0.2506 9.27027,0.7578 11.66761,2.2621 3.12512,1.9607 4.70825,1.8777 5.59277,-0.3232 0.81934,-2.0387 3.26135,-1.3875 7.23193,1.9388 7.94251,6.6536 11.89649,6.3339 10.02845,-0.8078 -0.88941,-3.3987 -0.44837,-4.6902 1.06067,-3.0699 3.55688,3.8211 13.40283,6.6016 13.40283,3.7967 0,-2.6095 17.03235,-1.6853 25.93908,1.3734 4.6875,1.6097 5.55457,1.1037 4.05005,-2.1813 -1.04834,-2.2874 -0.29089,-4.6252 1.73523,-5.2504 2.81348,-0.8678 2.84973,-1.9884 -0.0964,-4.6043 -7.00428,-6.2199 -4.10193,-7.0233 7.42492,-2.1004 12.74231,5.4422 16.29724,4.6436 10.12488,-2.1809 -3.30224,-3.6509 -3.34802,-3.9464 -0.0962,-1.5347 2.24597,1.6658 5.95337,2.4482 8.29236,1.6961 2.33874,-0.7518 4.33923,-0.3326 4.33923,0.9694 0,1.3021 1.88086,4.5642 4.24256,7.2702 3.70056,4.239 5.05676,4.4276 9.44995,1.3732 4.42883,-3.0795 5.67456,-2.7031 10.02844,2.504 l 5.01399,5.9778 2.7964,-6.2201 c 2.5774,-5.7795 3.0532,-5.8929 6.75,-1.6963 4.8843,5.5452 7.067,5.631 13.1138,0.5656 3.7615,-3.151 3.9722,-4.7191 0.9644,-7.7548 -2.0736,-2.093 -2.8518,-3.7966 -1.7358,-3.7966 1.1162,0 0.4271,-2.6173 -1.5427,-5.8163 -2.9976,-4.8677 -1.8715,-4.584 6.8462,2.0194 19.2025,14.546 20.4688,15.0836 25.939,10.5015 2.7241,-2.2823 3.8624,-5.5474 2.6035,-7.3507 -1.2897,-1.8467 0.2954,-1.5386 3.6638,0.727 16.3112,10.9711 32.8263,13.1303 21.6963,2.8273 -5.025,-4.6519 -4.8578,-5.0144 3.1819,-6.7051 l 8.3888,-1.7769 -9.0637,-6.1392 c -11.8526,-8.1161 -5.5148,-8.1361 11.4747,0 7.3859,3.5373 15.2352,6.4453 17.3568,6.4624 6.2276,0.05 4.4303,-4.0719 -3.0858,-7.1086 -6.2488,-2.5245 -5.7759,-2.8311 5.4963,-2.989 6.8881,-0.096 15.2194,-1.8705 18.5137,-3.9579 5.6987,-3.6109 5.6254,-3.7959 -3.1819,-3.8774 -13.2159,-0.1223 -60.218,-7.2908 -70.0053,-10.663 -11.9922,-4.1311 -14.2643,-10.4529 -2.4106,-6.7045 10.3994,3.2886 15.6598,0.5704 8.0033,-4.1196 -4.4443,-2.72235 -3.0121,-3.04718 8.7747,-2.26202 15.0458,1.00272 18.2516,-2.17505 7.0394,-6.9469 -6.0073,-2.55652 -4.9886,-2.88 8.0995,-2.34265 17.6606,0.7251 22.6383,-4.13806 7.4246,-7.27014 l -10.1245,-2.1001 10.0283,-0.96948 c 11.7433,-1.17407 12.7794,-3.8335 3.0854,-7.99707 -5.671,-2.43592 -3.27,-2.76709 13.1143,-1.61548 18.4671,1.29773 19.4964,1.09119 13.9815,-2.58496 -3.2941,-2.19593 -8.4084,-3.95813 -11.3785,-3.95813 -2.9696,0 -6.2847,-1.28284 -7.4246,-2.82715 -1.2978,-1.75964 0.6398,-2.66174 5.2071,-2.34253 12.8928,0.90027 21.214,0.0476 21.214,-2.26196 0,-1.23792 -9.7818,-3.05554 -21.6961,-4.03894 -11.9145,-0.98352 -21.0002,-2.72864 -20.1528,-3.87732 0.847,-1.14893 9.7394,-3.6294 19.767,-5.49292 18.9151,-3.51538 30.8886,-8.77771 27.0961,-11.95532 -1.9383,-1.62378 -19.1086,0.72009 -42.0421,5.81604 -7.047,1.56591 -6.8672,1.07971 2.7965,-5.89673 15.9019,-11.47998 6.9267,-12.66089 -16.0067,-2.10022 -23.0279,10.60339 -36.2125,11.46936 -61.713,4.1195 -28.93592,-8.33996 -75.86573,-28.29748 -79.35889,-33.76538 -4.32593,-6.77111 -1.86731,-6.57019 5.97864,0.48474 3.45996,3.11145 6.36377,4.70716 6.36377,3.5542 0,-1.15307 2.083,-0.63879 4.62854,1.13074 3.82385,2.65881 4.62854,2.41089 4.62854,-1.45386 0,-3.89441 1.57934,-3.41308 9.64245,2.90796 l 9.64258,7.59326 -1.83179,-8.32019 c -1.84802,-8.20324 -1.72387,-8.28503 6.55677,-5.33154 4.61267,1.64514 10.47209,4.33643 13.01769,5.97778 11.9644,7.71448 13.3529,7.54383 11.1856,-1.53503 -1.638,-6.85828 -1.3181,-8.05054 1.6392,-5.57361 5.3691,4.49829 18.0318,3.98853 18.0318,-0.72693 0,-4.81689 4.9825,-5.0592 8.2927,-0.40393 1.357,1.90869 6.3256,5.4773 10.9927,7.99719 6.9989,3.77906 8.4852,3.92066 8.4852,0.80787 0,-2.07581 -2.7771,-5.82789 -6.1711,-8.40113 -3.3942,-2.57312 -6.1713,-5.91272 -6.1713,-7.35083 0,-1.43823 0.7811,-1.84936 1.8322,-0.96924 1.0505,0.88001 4.1018,-0.20556 6.7496,-2.4237 3.34,-2.79798 8.3551,-3.64929 16.3928,-2.74634 7.9951,0.89832 12.114,0.21191 13.21,-2.18091 1.2098,-2.64099 4.0168,-2.91137 11.764,-1.05017 27.2143,6.53845 32.2233,-0.91504 5.9783,-8.88562 -17.7423,-5.38843 -19.9865,-8.11096 -3.3744,-4.11975 21.1115,5.07214 48.5726,1.23254 36.9313,-5.1698 -2.5464,-1.40015 -10.8773,-2.71802 -18.5142,-2.90808 -11.79,-0.29334 -12.5617,-0.55225 -4.9178,-1.93848 4.9519,-0.89795 9.622,-3.25702 10.4142,-5.25073 1.2026,-3.0282 -3.6661,-3.37115 -29.8923,-1.85785 -30.8802,1.78162 -31.3747,1.78143 -27.5777,-3.31201 5.6515,-7.58087 1.7685,-8.89356 -13.5961,-4.52356 -8.3071,2.36267 -18.9692,3.3548 -27.2888,2.50397 -17.8377,-1.82367 -76.85903,-18.39173 -83.79446,-23.5066 -7.24865,-5.34576 -6.84045,-9.05139 0.77137,-7.02795 3.46032,0.92029 6.17126,0.45166 6.17126,-1.0498 0,-2.80341 4.62207,-1.99726 20.05676,3.63513 5.09119,1.85772 16.26648,3.4342 24.87818,3.47333 8.61079,0.0392 16.94219,0.31372 18.51359,0.56555 7.2226,1.15686 7.984,-0.60987 2.6036,-5.97772 -3.8689,-3.85968 -2.6558,-3.42481 3.5677,1.2926 10.673,8.09064 13.6927,8.76434 13.6927,3.15021 0,-3.41193 0.9925,-3.39099 7.9069,0.40381 4.6561,2.55578 8.8314,3.35882 10.0283,1.93878 1.1277,-1.33802 6.2075,-3.94293 11.2821,-5.8161 8.8575,-3.26972 8.999,-3.52338 3.2783,-7.02759 -6.9861,-4.27954 -5.2084,-4.63269 5.7854,-1.13111 5.9749,1.90296 8.0033,1.72333 8.0033,-0.80767 0,-2.04377 7.832,-4.72913 20.0568,-6.86628 11.0312,-1.92846 20.0567,-4.56384 20.0567,-5.81597 0,-1.25208 1.3056,-1.51783 2.989,-0.64624 1.6839,0.87176 5.5263,0.41809 8.4858,-0.96924 4.7041,-2.20545 4.2807,-2.79297 -3.1819,-4.36206 -6.4353,-1.35309 -8.0851,-2.93769 -6.7498,-6.46234 1.3101,-3.45868 -0.069,-4.84687 -5.3037,-5.49286 -4.9966,-0.61658 -1.4478,-2.43116 12.1499,-6.05848 21.0713,-5.62078 26.278,-10.708 7.8104,-7.67395 -17.052,2.80115 -59.3987,3.43842 -59.3987,0.88868 0,-1.21051 1.3885,-2.18122 3.0855,-2.18122 1.6971,0 3.0858,-1.17547 3.0858,-2.5849 0,-1.40918 -6.5957,-2.47998 -14.6569,-2.34265 -20.2463,0.34546 -52.6127,-5.32385 -54.5772,-9.61242 -1.1053,-2.41352 0.8894,-3.55457 6.0747,-3.55457 4.1898,0 7.6177,-1.12714 7.6177,-2.50415 0,-1.37701 2.0828,-1.86822 4.6285,-1.04999 2.5455,0.81848 4.6284,0.11975 4.6284,-1.53491 0,-1.98242 2.3262,-1.60211 6.8466,1.05005 3.7716,2.21332 10.3673,4.00561 14.6565,3.95825 l 7.8108,-0.0807 -7.1355,-5.00818 -7.0395,-4.92773 14.7533,-0.80756 14.8499,-0.88861 -10.8001,-4.36212 -10.7998,-4.362 9.45,-0.0807 c 6.0222,-0.0642 12.1798,-2.44251 16.7781,-6.54309 3.9862,-3.55414 8.6688,-6.46234 10.5107,-6.46234 1.8416,0 5.1846,-2.375 7.3284,-5.25037 5.6416,-7.56781 -1.5446,-9.0849 -19.2854,-4.03931 -19.1322,5.44184 -23.0968,5.29102 -21.1171,-1.04968 1.9493,-6.24463 1.4413,-6.27893 -17.9353,-0.96942 -14.7405,4.03876 -16.2733,3.9209 -39.8242,-1.69678 -31.76102,-7.57556 -39.90202,-14.67199 -15.42826,-13.4898 2.52099,0.1217 5.55578,-1.04737 6.74975,-2.66584 1.5188,-2.05859 4.07491,-1.57428 8.38911,1.69635 4.8355,3.66608 8.8776,4.29944 18.7066,2.90815 14.023,-1.98456 14.8915,-2.96698 7.136,-8.32032 -5.5489,-3.82947 -3.5008,-3.70965 9.739,0.72718 4.7405,1.58856 5.5357,1.11267 3.9531,-2.34266 -1.4605,-3.18841 -0.2847,-4.281 4.4357,-4.281 4.2971,0 5.8651,-1.22638 4.7254,-3.716 -0.9352,-2.04071 -0.098,-4.2948 1.9282,-5.00831 2.586,-0.91058 2.2342,-2.3905 -1.3502,-4.8468 -4.6849,-3.2099 -4.4942,-3.96148 2.3144,-9.45111 11.1156,-8.96234 9.0509,-10.83697 -7.2319,-6.46228 -40.4946,10.8797 -55.34172,11.52863 -65.28081,2.66565 -5.63256,-5.02258 -5.96167,-6.3894 -2.21801,-7.59314 2.51416,-0.80817 8.73535,-0.17432 13.88549,1.4541 13.18833,4.17011 16.00743,0.0129 5.01433,-7.43176 -7.70817,-5.22015 -8.22453,-6.18897 -3.08574,-5.81598 10.79334,0.78357 16.97094,-0.24445 16.97094,-2.9079 0,-1.42212 -2.4298,-2.65655 -5.3994,-2.74646 -4.3732,-0.13287 -4.2148,-0.638 1.0603,-2.42358 3.5825,-1.21259 7.3429,-4.01624 8.3892,-6.30072 1.6471,-3.59595 1.0328,-3.75916 -4.9179,-0.969 -10.7627,5.04578 -75.06932,4.27564 -88.61547,-1.05017 -9.4696,-3.72326 -9.97131,-4.25818 -3.56811,-4.44299 5.84546,-0.16888 7.04089,-1.24506 5.68921,-5.57385 -1.51429,-4.85071 -1.17994,-5.03522 3.47131,-1.69629 6.76099,4.85376 16.00708,7.5639 16.00708,4.68524 0,-1.24396 2.77673,-1.71295 6.17114,-0.96942 3.4502,0.75586 6.17127,0.079 6.17127,-1.53473 0,-1.58765 3.47131,-2.82727 7.71435,-2.82727 10.25574,0 9.74768,-2.57111 -2.12158,-10.74353 l -9.93188,-6.7854 16.48901,2.18091 c 17.00537,2.25201 23.19482,1.31524 19.96033,-3.06977 -3.16077,-4.28387 5.13012,-10.01623 14.46354,-10.01623 10.5137,0 11.9672,-4.26849 2.0251,-6.05859 -3.9439,-0.71003 -2.2779,-1.16346 3.8571,-0.96924 7.0205,0.22217 10.5299,-0.69977 10.0284,-2.74652 -0.4245,-1.73182 0.6983,-3.15052 2.6035,-3.15052 2.33,0 2.2123,-1.31897 -0.4824,-4.03894 -2.5546,-2.57861 -6.8912,-3.61108 -11.9566,-2.74627 -4.369,0.74585 -6.1713,0.77295 -4.05,0 7.123,-2.59522 3.9687,-6.7345 -3.8572,-5.08911 -6.25742,1.31567 -7.22019,0.80639 -5.59275,-2.74665 1.45565,-3.17755 0.82166,-3.75451 -2.21765,-2.18091 -2.27966,1.18024 -7.68066,2.36249 -12.05347,2.66559 -4.37268,0.30359 -11.37817,1.3573 -15.62072,2.34278 l -7.71436,1.77734 8.48572,-6.05872 c 9.80518,-7.04974 11.22827,-11.18011 2.50696,-7.27008 -8.60523,3.8581 -14.92249,3.53437 -10.12488,-0.48468 6.92602,-5.80176 4.19348,-10.37689 -2.89246,-4.84662 -3.62378,2.82801 -10.8966,6.85852 -16.19958,8.96631 -18.85193,7.49402 -69.71643,-2.7091 -69.71643,-13.97473 0,-2.25238 -1.72425,-5.48309 -3.76099,-7.18921 -2.47717,-2.07519 -2.54565,-3.06976 -0.28906,-3.06976 1.85486,0 4.13257,1.74255 5.11084,3.87769 1.12768,2.46215 5.53601,3.75097 11.95691,3.55395 5.5675,-0.17035 13.2489,0.57117 17.06714,1.61591 5.70361,1.56024 6.9425,0.86865 6.9425,-3.55451 l 0,-5.3313 10.51074,5.16986 c 7.55542,3.73438 11.14246,4.4112 12.7284,2.26166 1.21545,-1.64721 0.3136,-4.09375 -2.02515,-5.41205 -3.66382,-2.06506 14.34827,-1.78955 26.61389,0.40394 1.69715,0.3034 6.23816,-0.32801 10.12488,-1.37317 6.51856,-1.75342 6.63696,-2.28217 2.1211,-6.46241 -4.5293,-4.19281 -4.28162,-4.61065 2.98938,-6.13906 8.9143,-1.8743 10.69189,-6.71299 2.50695,-6.86615 -3.40197,-0.0641 -1.97546,-1.39234 3.85718,-3.63511 5.09119,-1.95797 13.33887,-6.38952 18.32117,-9.85491 l 8.96764,-6.30069 -11.28209,-1.77747 c -6.25489,-0.98291 -11.37818,-2.89673 -11.37818,-4.28116 0,-1.45166 -3.59155,-1.8291 -8.48572,-0.8078 -7.40747,1.54541 -8.06421,1.31467 -4.62841,-2.18094 5.95776,-6.06167 -2.91748,-7.91147 -12.05311,-2.50415 -4.276,2.53083 -13.55566,4.41284 -22.46728,4.52362 -12.15479,0.15122 -13.88672,-0.35971 -8.58215,-2.34256 5.99987,-2.24295 6.59301,-4.35009 3.95361,-14.21722 -0.12634,-0.47122 -4.89148,1.56427 -10.60718,4.52344 -5.7157,2.95947 -15.08813,5.34698 -20.82812,5.33163 -19.23816,-0.0517 -52.35083,-10.78955 -73.38025,-23.82962 -8.09754,-5.02099 -6.38196,-6.05945 2.98901,-1.85803 4.85779,2.17816 5.99866,1.81741 6.07507,-1.93878 0.0894,-4.40604 0.24061,-4.45184 3.27845,-0.0806 1.74963,2.51798 4.43359,3.95001 5.97863,3.15039 1.54456,-0.80005 6.31617,0.47208 10.60682,2.82718 7.71692,4.23581 7.76391,4.1756 7.81042,-3.15036 0.0261,-4.07333 1.06751,-6.08798 2.31445,-4.52371 2.70032,3.38818 14.35767,8.80487 18.99561,8.80487 1.80859,0 3.49512,-2.61719 3.66455,-5.81589 0.29175,-5.52084 0.37341,-5.488 2.41052,0.64594 1.17993,3.55432 2.79566,5.92734 3.56739,5.33154 0.77258,-0.59552 4.29382,0.20014 7.81079,1.7771 5.21411,2.33753 7.18591,1.95685 10.60717,-2.01947 2.30738,-2.68213 5.39014,-4.22726 6.8462,-3.47336 1.45605,0.75391 1.68676,-1.63229 0.57836,-5.33139 -1.92858,-6.43792 -1.66638,-6.62738 6.4607,-4.03906 10.03137,3.19516 13.15051,1.61048 7.71423,-3.87738 -3.24805,-3.27856 -2.92456,-3.87717 1.63928,-3.87717 5.19324,0 5.12219,-0.2752 0.0964,-4.92755 -2.9198,-2.70236 -3.99182,-5.56314 -2.41089,-6.38159 1.58044,-0.81854 5.29736,0.78177 8.29272,3.55414 4.70264,4.3533 7.72449,4.74335 19.6709,2.74655 0.63208,-0.1055 -0.32763,-1.72714 -2.21765,-3.63519 -4.01562,-4.05289 -1.63721,-6.86615 5.88184,-6.86615 2.92309,0 8.62524,-2.29279 12.63183,-5.08902 l 7.32849,-5.08905 -9.25671,-0.48477 c -5.09155,-0.26838 -12.65979,-0.23346 -16.77832,0.0811 -6.51855,0.4975 -7.01526,0.0225 -3.47131,-3.5542 6.74695,-6.81076 1.9967,-6.79062 -9.93189,0 -12.9353,7.36304 -20.72522,8.64585 -14.56042,2.42319 3.2605,-3.29147 3.07776,-3.70401 -1.15723,-2.34256 -5.88794,1.8927 -6.74597,-1.61874 -1.44629,-6.05856 7.90308,-6.62064 -0.4801,-5.62714 -10.22131,1.21185 -19.17908,13.46448 -21.53406,13.89227 -43.19898,8.40091 -22.71472,-5.75723 -37.94629,-12.94791 -42.52404,-20.11383 -2.80213,-4.38596 -2.16358,-5.00702 4.53198,-4.68524 4.22412,0.20312 8.33093,2.17672 9.16064,4.36218 0.82923,2.18539 4.43518,4.13678 8.0033,4.36203 5.20654,0.32852 6.11975,-0.70172 4.72497,-5.16989 -1.5476,-4.95578 -0.89538,-4.77744 5.49634,1.4541 3.94947,3.85037 10.24512,7.02777 14.07813,7.02777 6.0498,0 6.7655,-0.98358 5.20691,-7.5126 -2.33557,-9.78312 4.90612,-12.48447 12.43896,-4.60443 5.14673,5.38375 22.50208,9.16513 22.56372,4.92767 0.0159,-1.05039 -4.49719,-5.01413 -10.02832,-8.88574 -7.66931,-5.36829 -8.72412,-7.05561 -4.53174,-7.10846 3.02308,-0.0383 6.25867,1.59158 7.23194,3.71576 0.97265,2.12439 2.93677,3.31073 4.33911,2.58477 1.4021,-0.72558 3.36963,-0.15228 4.43567,1.29248 1.06604,1.44507 5.65747,2.66581 10.12488,2.66581 7.77441,0 7.85461,-0.189 2.12146,-3.71579 -5.77747,-3.55344 -5.67871,-3.78302 2.69958,-6.46234 4.77759,-1.52778 10.33179,-2.77671 12.34241,-2.82721 2.01111,-0.0504 0.19299,-1.74512 -4.04968,-3.71585 -7.52173,-3.49375 -7.44349,-3.57019 4.24267,-2.66562 7.57092,0.58603 13.60596,-0.41236 16.39246,-2.74656 6.78296,-5.6824 1.97473,-8.88571 -13.30664,-8.88571 -8.53601,0 -13.1377,-1.06534 -11.95703,-2.66574 3.88708,-5.26889 -7.50477,-5.35882 -20.34583,-0.1615 -15.73804,6.37009 -18.65894,6.69309 -16.29602,1.53501 1.1156,-2.43555 -0.0317,-3.87744 -3.08582,-3.87744 -3.05358,0 -4.20141,-1.4419 -3.08581,-3.87745 2.07727,-4.5346 1.00476,-4.69168 -9.16016,-1.45397 -6.61193,2.1058 -7.34057,1.77819 -5.97827,-2.58484 1.62097,-5.19379 -3.55871,-7.0105 -6.94299,-2.42347 -1.06384,1.44208 -7.59815,5.10248 -14.56043,8.07782 -11.19165,4.7829 -14.08374,5.0196 -25.0708,2.26191 -10.24438,-2.57132 -11.55102,-3.54895 -7.23193,-5.57361 2.88147,-1.35111 5.30334,-4.21219 5.30334,-6.38165 0,-3.05976 -3.16259,-3.78852 -13.98193,-3.23108 -10.52551,0.54211 -15.3678,-0.55338 -19.86352,-4.36219 -6.77155,-5.73693 -13.31958,-26.23101 -9.06409,-28.43417 2.6311,-1.36218 4.10419,4.14545 2.98932,11.22827 -0.28559,1.81397 2.43023,6.77951 6.07477,11.0668 5.28826,6.22181 7.53845,7.1673 10.99267,4.76596 2.37988,-1.65469 4.4314,-6.03854 4.62818,-9.77438 0.28332,-5.37057 0.7395,-5.70346 1.92858,-1.61542 2.33594,8.03186 10.34424,14.21704 18.41761,14.21704 6.30469,0 6.88843,-0.71585 4.14612,-5.00836 -4.03077,-6.3092 -4.05726,-8.67453 -0.0961,-6.62375 1.69702,0.87857 3.08545,0.37479 3.08545,-1.13083 0,-1.50555 1.38867,-2.74667 3.08581,-2.74667 1.69702,0 3.08582,1.62894 3.08582,3.63516 0,4.63513 18.02832,17.53882 21.79199,15.5904 1.55334,-0.80439 2.89282,-3.70282 2.89282,-6.46253 0,-2.75952 1.38464,-5.00824 3.18225,-5.00824 1.797,0 2.4458,-1.45401 1.34985,-3.23114 -1.09631,-1.77722 0.57837,-0.59717 3.76062,2.66583 3.18238,3.2627 6.84803,5.08722 8.09986,4.03894 1.25146,-1.04864 5.28943,-2.30621 9.06409,-2.74664 8.35668,-0.97476 20.82775,-6.12713 20.82775,-8.64331 0,-1.00885 -4.12951,-3.26245 -9.16015,-5.00803 -5.03137,-1.746 -8.84961,-4.51361 -8.48572,-6.13937 0.3689,-1.64758 -3.55371,-3.08704 -8.77466,-3.23117 -10.79443,-0.298 -26.50488,-6.439 -20.63525,-8.07785 2.1167,-0.59119 3.85681,-2.75195 3.85681,-4.76593 0,-4.09927 -15.42859,-5.14612 -20.24927,-1.37323 -4.66406,3.65051 -16.77807,6.03888 -16.77807,3.31189 0,-1.3634 3.51403,-3.19605 7.90649,-4.11975 6.5802,-1.38355 7.32092,-2.38599 4.24304,-5.49286 -3.04614,-3.07446 -2.58948,-3.72968 2.12146,-3.79666 6.87342,-0.0977 18.48194,-6.9736 15.71729,-9.28952 -1.06494,-0.8923 -8.28589,-2.17893 -16.00659,-2.9079 -15.4419,-1.45818 -15.36512,-1.41676 -10.79981,-8.56279 2.96021,-4.6337 3.70776,-4.70358 10.51038,-0.96909 6.8695,3.7706 7.45288,3.64209 9.35315,-1.37344 1.11706,-2.94742 3.34301,-4.69272 4.91821,-3.87729 1.57446,0.81534 2.89245,0.29395 2.89245,-1.2117 0,-1.50555 2.77723,-2.74667 6.17127,-2.74667 3.39416,0 6.17163,-1.6543 6.17163,-3.63489 0,-3.95248 -6.52075,-6.70462 -15.71765,-6.70462 -7.00537,0 -7.94812,-4.74515 -1.34985,-6.86618 2.53576,-0.81525 3.96276,-2.33432 3.182,-3.39279 -0.78125,-1.05829 2.04395,-3.43762 6.26758,-5.33121 10.3999,-4.66275 7.82715,-8.96667 -5.40015,-8.96667 l -10.89587,0 7.81043,-8.56247 c 6.08947,-6.68412 6.90136,-9.19074 3.95361,-11.63202 -2.93787,-2.43274 -5.92871,-1.10587 -13.8855,6.13916 -9.43408,8.59027 -10.41467,8.92083 -13.69226,4.52356 -1.94519,-2.60907 -4.91797,-4.68518 -6.55713,-4.68518 -3.66833,0 -13.41565,14.46405 -15.52466,23.10284 -1.55908,6.38544 -29.95959,26.76831 -34.23138,24.55667 -1.21735,-0.62997 -1.81696,-7.53085 -1.4466,-15.34796 0.37073,-7.81711 -0.54589,-14.21722 -2.02471,-14.21722 -1.47913,0 -2.26221,-4.29447 -1.7356,-9.53177 0.79895,-7.94574 2.35303,-9.8714 9.54602,-11.47046 7.4563,-1.65772 8.40588,-1.28916 6.84613,2.82715 -2.81457,7.42926 4.71173,9.31982 10.70361,2.66568 3.16761,-3.5181 6.14173,-4.83924 7.32849,-3.23127 2.10254,2.8505 14.36744,1.34394 14.36744,-1.77697 0,-2.4025 -15.36048,-14.44059 -18.03162,-14.13626 -1.13647,0.12939 -4.47424,-0.32297 -7.42499,-0.9693 -8.70697,-1.90747 -3.04382,-5.54126 6.17121,-3.95826 15.46728,2.6572 29.40954,2.16068 30.76013,-1.13101 0.72888,-1.77707 -0.70288,-3.23099 -3.18189,-3.23099 -2.47985,0 -6.19592,-1.76062 -8.29284,-3.8775 -2.09766,-2.11688 -5.05249,-3.20239 -6.55701,-2.42331 -1.50488,0.77912 -2.70483,0.50409 -2.69995,-0.6463 0.005,-1.15014 4.17529,-4.42651 9.25696,-7.27002 9.34289,-5.22793 11.90893,-9.04715 6.07483,-9.04715 -5.61963,0 -25.8285,7.82941 -28.54212,11.06671 -1.60583,1.91581 -1.91608,0.92136 -0.7713,-2.50415 1.02826,-3.07919 0.539,-6.28018 -1.06079,-7.10867 -3.35852,-1.73868 -15.81409,14.88861 -15.81409,21.08328 0,2.28818 -0.92004,3.42987 -2.02472,2.50418 -1.10534,-0.92559 -3.95208,0.28061 -6.26764,2.74656 -3.66918,3.90683 -3.97863,2.84976 -2.60388,-8.15873 1.27716,-10.22793 4.1753,-15.21887 15.42829,-26.25305 7.64428,-7.49576 13.98193,-15.3034 13.98193,-17.36734 0,-6.211791 -15.505,-2.12747 -18.70691,4.92743 -5.0946,11.22519 -10.70105,7.33341 -9.54608,-6.62387 0.84247,-10.184754 -0.25305,-14.0318 -5.39984,-18.659944 l -6.46063,-5.735229 0,4.6e-5 z M 747.77936,169.7859 c 1.40997,0.0706 4.76324,2.31397 8.58178,5.89686 6.34449,5.95315 9.25666,11.32415 9.25666,17.2059 0,4.71988 -0.58673,8.64331 -1.2533,8.64331 -1.65924,0 -5.63592,-8.00977 -7.03943,-14.13626 -0.63403,-2.76895 -3.1842,-6.8899 -5.6889,-9.20877 -2.50549,-2.31891 -4.53204,-5.8335 -4.53204,-7.7547 0,-0.48035 0.20501,-0.6698 0.67523,-0.64634 l 0,0 z m -7.52136,37.96601 c 5.87085,0.36071 20.11126,8.59189 22.37085,13.57089 4.01947,8.85678 1.73523,10.50809 -5.20734,3.71588 -3.04419,-2.97876 -7.24445,-5.41217 -9.35309,-5.41217 -3.57306,0 -11.99823,-9.99625 -9.73901,-11.55142 0.43622,-0.30039 1.0899,-0.37473 1.92859,-0.32318 z m 84.27636,21.08328 c 0.74195,0.004 1.6438,0.11294 2.60388,0.323 5.08936,1.11493 3.89503,2.65027 -8.00366,10.25903 -7.7102,4.93021 -16.73572,9.16692 -19.96032,9.37044 -3.22431,0.20334 -5.7854,1.22323 -5.7854,2.34253 0,1.11914 -1.56006,2.10022 -3.37519,2.10022 -1.81506,0 -2.85656,-2.6178 -2.31408,-5.81616 0.85345,-5.03322 2.61676,-5.73827 12.63226,-5.00835 8.90369,0.64917 11.57068,-0.0949 11.57068,-3.23105 0,-2.24164 2.08301,-4.03894 4.62854,-4.03894 2.54565,0 4.62854,-1.63559 4.62854,-3.63501 0,-1.74558 1.14856,-2.67658 3.37475,-2.66571 z m -35.77398,36.99675 7.23199,2.98868 c 3.97632,1.62286 10.57196,2.23205 14.65686,1.37329 4.20593,-0.88443 7.42456,-0.44168 7.42456,1.05008 0,1.44882 -1.33423,2.66568 -2.89245,2.66568 -1.5586,0 -4.82752,0.60022 -7.23206,1.37326 -2.40485,0.77286 -7.66583,-1.0532 -11.76398,-4.03894 l -7.42492,-5.41205 z m 33.84539,6.38138 c 0.70032,0.0863 1.7323,0.68811 3.18238,1.69635 3.44897,2.39795 4.62841,2.43744 4.62841,0.16156 0,-1.67957 1.5171,-2.22336 3.47132,-1.21179 2.46203,1.27465 1.81811,2.91833 -2.1211,5.33142 -7.94775,4.86844 -10.60717,4.34033 -10.60717,-2.0196 0,-2.86468 0.27917,-4.10199 1.44616,-3.95794 z m 46.47779,9.45117 c 2.64587,0 4.03796,1.16315 2.98889,2.58502 -2.46729,3.34445 -7.71387,3.34445 -7.71387,0 0,-1.42187 2.0791,-2.58502 4.72498,-2.58502 z m -72.60889,41.3587 c 1.69708,0 3.08545,5.81592 3.08545,12.92441 0,13.10547 -0.4657,14.23117 -4.14655,11.14746 -3.28558,-2.75253 -2.34246,-24.07187 1.0611,-24.07187 z m -23.52808,34.49225 c 1.10657,-0.15561 1.92823,0.40582 1.92823,1.53488 0,1.50571 -1.38837,2.74656 -3.08539,2.74656 -3.95404,0 -3.95404,-1.8303 0,-3.87732 0.42407,-0.21979 0.78796,-0.35196 1.15716,-0.40412 z m 24.87751,5.49292 c 0.17816,-0.0131 0.46417,0.20877 0.67523,0.64624 0.84515,1.75028 0.87884,5.2399 0.0965,7.75489 -0.78235,2.51513 -1.47992,1.11486 -1.54273,-3.15024 -0.0473,-3.19889 0.23755,-5.21045 0.771,-5.25089 z m -38.37714,1.37335 c 1.69702,0 3.08539,0.50391 3.08539,1.13086 0,0.62702 -1.38837,1.86774 -3.08539,2.74668 -1.69745,0.87848 -3.08581,0.37469 -3.08581,-1.13108 0,-1.50561 1.38873,-2.74646 3.08581,-2.74646 z m -15.42828,5.16987 c 1.69708,0 3.08545,0.50408 3.08545,1.13085 0,0.62714 -1.38837,1.86792 -3.08545,2.74646 -1.69745,0.87867 -3.08582,0.37488 -3.08582,-1.13085 0,-1.50556 1.3888,-2.74646 3.08582,-2.74646 z m -64.2204,0.0806 c 2.11017,0.17398 4.72955,1.34079 6.75006,3.47367 6.25519,6.60351 16.62482,7.48004 22.37079,1.85794 5.08441,-4.97431 12.33642,-5.03891 8.67865,-0.0808 -0.97644,1.32351 0.34686,2.42346 2.89282,2.42346 2.54559,0 5.50812,-1.16345 6.55676,-2.58508 2.48999,-3.37513 7.7143,-3.39588 7.7143,0 0,1.45697 -3.81854,3.91125 -8.48566,5.41223 -4.66711,1.50094 -16.42242,3.30804 -26.03509,4.039 -15.31171,1.1644 -17.89252,0.71716 -20.82813,-3.87744 -1.84271,-2.88446 -3.27832,-6.48178 -3.27832,-7.99713 0,-1.96662 1.55444,-2.83951 3.66382,-2.66587 z m 283.10815,136.9202 c 1.79724,0 3.27832,1.16327 3.27832,2.58478 0,3.31238 -2.18469,3.31238 -4.62854,0 -1.04907,-1.42151 -0.44714,-2.58478 1.35022,-2.58478 l 0,0 z m -257.94055,31.0188 c 1.88886,0 -1.76703,2.32648 -8.09979,5.16998 -11.20679,5.03168 -17.64624,6.43329 -17.64624,3.87732 0,-1.60449 21.18939,-9.0473 25.74603,-9.0473 z m 266.42615,110.42444 c 3.39905,-0.0168 6.78027,0.28332 8.87085,0.96936 4.21606,1.38336 2.14184,1.9718 -7.13562,2.10046 -7.21228,0.0999 -13.11377,-0.26263 -13.11377,-0.80786 0,-1.37146 5.7124,-2.23358 11.37854,-2.26196 z m 69.04087,13.97479 c 1.072,-0.0369 2.3579,0.1112 3.4716,0.4848 2.4616,0.82507 1.6657,1.41071 -1.9285,1.53461 -3.2527,0.11206 -5.075,-0.51422 -4.0502,-1.37317 0.513,-0.42938 1.4353,-0.60932 2.5071,-0.64624 z m 0.7717,64.38061 c 0.1384,-0.0334 0.3662,0 0.5784,0 1.697,0 5.1683,1.12586 7.7139,2.50415 2.5459,1.37818 3.2402,2.50428 1.5431,2.50428 -1.6975,0 -5.1683,-1.12592 -7.7143,-2.50428 -2.2274,-1.20599 -3.0907,-2.26947 -2.1211,-2.50415 z M 503.72406,830.79767 c 1.45615,-0.18176 1.87146,0.35504 1.06082,1.45428 -1.03696,1.40534 -3.12781,2.58484 -4.72497,2.58484 -4.43827,0 -3.51334,-1.91656 1.83206,-3.63507 0.68664,-0.22076 1.34674,-0.3432 1.83209,-0.40405 z m 49.85217,22.21442 7.03943,6.30084 6.94257,6.30053 5.3034,-6.78527 c 4.82526,-6.16944 5.49329,-6.2912 8.29273,-2.10022 2.29785,3.43957 3.7055,3.71997 5.49634,1.29235 1.69824,-2.30157 2.95074,-1.65777 4.4356,2.26197 2.10901,5.56579 7.90723,7.76782 7.90723,2.98864 0,-1.42187 3.81824,-2.59362 8.48529,-2.58483 l 8.48572,0 -9.25708,4.11975 c -5.96692,2.63525 -13.95435,3.59863 -22.37079,2.82727 -7.18207,-0.65845 -12.29669,-0.11341 -11.37854,1.13073 2.4328,3.29786 -2.17108,2.69654 -11.6676,-1.45385 -4.8468,-2.11865 -8.67554,-2.59192 -9.25702,-1.13123 -0.54852,1.37915 -3.52728,1.70093 -6.5567,0.72717 -5.11994,-1.64575 -4.98529,-2.18676 1.34979,-7.83569 l 6.74963,-6.05817 z m 71.7414,2.82727 c 0.64953,-0.004 1.27563,0.006 1.83209,0.16131 2.31109,0.64557 0.89392,1.83264 -3.27869,2.74671 -5.13244,1.12426 -6.33923,0.78723 -4.04974,-1.13086 1.34485,-1.12671 3.54846,-1.76642 5.49634,-1.77716 z m -31.33844,106.54693 c 1.10614,-0.15576 1.92852,0.40576 1.92852,1.53479 0,1.50562 -1.38873,2.74646 -3.08575,2.74646 -3.95367,0 -3.95367,-1.8302 0,-3.87732 0.42444,-0.2196 0.78839,-0.3518 1.15723,-0.40393 z"
         inkscape:connector-curvature="0"
         style="fill:#000000" /></g></g></g></svg>